<svg xmlns="http://www.w3.org/2000/svg" viewBox="0 0 64 64" width="64" height="64">
	<style>
		tspan { white-space:pre }
		.shp0 { fill: #ffffff } 
	</style>
	<path id="Layer" fill-rule="evenodd" class="shp0" d="M50 38.36C50 43.27 48.05 47.97 44.58 51.44C41.11 54.91 36.41 56.86 31.5 56.86C26.59 56.86 21.89 54.91 18.42 51.44C14.95 47.97 13 43.27 13 38.36C13 22.17 28 7.14 31.5 7.14C35 7.14 50 22.17 50 38.36ZM23.3 34.24C23.3 35.9 23.86 37.1 24.94 37.1C26.02 37.1 26.5 36.03 26.5 34.24C26.5 32.63 26.06 31.38 24.91 31.38C23.76 31.38 23.34 32.66 23.34 34.24L23.3 34.24ZM37.07 40.84C37.07 42.5 37.61 43.7 38.68 43.7C39.75 43.7 40.24 42.63 40.24 40.84C40.24 39.23 39.82 37.98 38.68 37.98C37.54 37.98 37.11 39.25 37.11 40.84L37.07 40.84ZM36.7 29.69L27.45 44.72" />
</svg>